<?xml version="1.0" encoding="UTF-8" standalone="no"?>
<svg
   xmlns:dc="http://purl.org/dc/elements/1.1/"
   xmlns:cc="http://creativecommons.org/ns#"
   xmlns:rdf="http://www.w3.org/1999/02/22-rdf-syntax-ns#"
   xmlns:svg="http://www.w3.org/2000/svg"
   xmlns="http://www.w3.org/2000/svg"
   xmlns:sodipodi="http://sodipodi.sourceforge.net/DTD/sodipodi-0.dtd"
   xmlns:inkscape="http://www.inkscape.org/namespaces/inkscape"
   height="25.321px"
   id="Capa_1"
   style="enable-background:new 0 0 15.165 25.321;"
   version="1.1"
   viewBox="0 0 15.165 25.321"
   width="15.165px"
   xml:space="preserve"
   inkscape:version="0.48.4 r9939"
   sodipodi:docname="1400905669_man15.svg"><metadata
     id="metadata59"><rdf:RDF><cc:Work
         rdf:about=""><dc:format>image/svg+xml</dc:format><dc:type
           rdf:resource="http://purl.org/dc/dcmitype/StillImage" /></cc:Work></rdf:RDF></metadata><defs
     id="defs57" /><sodipodi:namedview
     pagecolor="#ffffff"
     bordercolor="#666666"
     borderopacity="1"
     objecttolerance="10"
     gridtolerance="10"
     guidetolerance="10"
     inkscape:pageopacity="0"
     inkscape:pageshadow="2"
     inkscape:window-width="1280"
     inkscape:window-height="738"
     id="namedview55"
     showgrid="false"
     inkscape:zoom="13.180933"
     inkscape:cx="22.296099"
     inkscape:cy="10.421468"
     inkscape:window-x="-8"
     inkscape:window-y="-8"
     inkscape:window-maximized="1"
     inkscape:current-layer="Capa_1" /><g
     id="g3890"
     transform="matrix(9.8861994,0,0,9.8861994,-7.2102676e-4,-224.99986)"><path
       d="m 3.461,11.678 c -2.206,2.07 -2.919,5.48 -3.376,8.336 l 0,0 c -0.29,1.818 0.136,2.79 1.693,3.69 l 0,0 c 1.749,1.014 3.771,1.627 5.801,1.616 l 0,0 c 1.327,-0.005 2.476,-0.171 3.792,-0.402 l 0,0 c 1.371,-0.242 3.228,-0.892 3.65,-2.348 l 0,0 c 0.47,-1.617 -0.327,-3.925 -0.7,-5.316 l 0,0 c -0.638,-2.375 -1.71,-5.478 -4.152,-6.559 l 0,0 C 9.951,10.598 9.725,10.521 9.492,10.466 l 0,0 C 8.805,10.303 8.106,10.209 7.419,10.209 l 0,0 C 5.977,10.21 4.585,10.623 3.461,11.678 l 0,0 z"
       style="fill:#ffffff;fill-opacity:1"
       id="path5"
       inkscape:connector-curvature="0" /><path
       d="m 7.382,11.476 c 2.913,0 5.288,-2.375 5.288,-5.288 C 12.67,3.276 10.295,0.9 7.382,0.9 4.469,0.9 2.095,3.275 2.095,6.188 c 0,2.912 2.375,5.288 5.287,5.288 z"
       style="fill:#3e4095;fill-opacity:1;fill-rule:evenodd;stroke:#ffffff;stroke-width:0.0901;stroke-miterlimit:2.61310005;stroke-opacity:1"
       id="path7"
       inkscape:connector-curvature="0" /><path
       d="m 5.77,11.066 0,0 0.845,2.521 c 0.721,-0.254 1.518,0.073 1.518,0.073 l 0,0 0.751,-2.906 c 0,0 -1.408,-0.731 -1.57,-0.73 l 0,0 c -0.001,0 -0.003,0 -0.005,0 l 0,0 C 7.175,10.065 5.775,11.063 5.77,11.066 z"
       style="fill:#ffffff"
       id="path13"
       inkscape:connector-curvature="0" /><polygon
       points="5.943,18.355 5.943,18.356 7.327,20.662 9.028,18.237 8.133,13.66 8.056,13.032 6.708,13.364 "
       style="fill:#ffffff"
       id="polygon15" /><path
       inkscape:connector-curvature="0"
       id="path17"
       style="fill:#ffffff;fill-opacity:1"
       d="M 4.276,0.656 C 1.349,2.16 2.015,6.258 2.015,6.258 l 0,0 C 4.245,6.077 9.066,2.605 9.066,2.605 l 0,0 c 1.149,2.102 3.656,3.042 3.656,3.042 l 0,0 C 12.908,1.579 9.957,0 7.197,0 l 0,0 C 6.131,0 5.092,0.237 4.276,0.656 l 0,0 z" /><path
       inkscape:connector-curvature="0"
       id="path21"
       style="fill:#3e4095;fill-opacity:1;stroke:#ffffff;stroke-width:0.1;stroke-miterlimit:4;stroke-opacity:1;stroke-dasharray:none"
       d="m 5.77,11.066 0,0 0.845,2.521 c 0.721,-0.254 1.518,0.073 1.518,0.073 l 0,0 0.751,-2.906 c 0,0 -1.408,-0.731 -1.57,-0.73 l 0,0 c -0.001,0 -0.003,0 -0.005,0 l 0,0 C 7.175,10.065 5.775,11.063 5.77,11.066 z" /><polygon
       id="polygon23"
       style="fill:#3e4095;fill-opacity:1;stroke:#ffffff;stroke-width:0.1;stroke-miterlimit:4;stroke-opacity:1;stroke-dasharray:none"
       points="8.056,13.032 6.708,13.364 5.943,18.355 5.943,18.356 7.327,20.662 9.028,18.237 8.133,13.66 " /></g><g
     id="g25" /><g
     id="g27" /><g
     id="g29" /><g
     id="g31" /><g
     id="g33" /><g
     id="g35" /><g
     id="g37" /><g
     id="g39" /><g
     id="g41" /><g
     id="g43" /><g
     id="g45" /><g
     id="g47" /><g
     id="g49" /><g
     id="g51" /><g
     id="g53" /></svg>