<?xml version="1.0" ?><!DOCTYPE svg  PUBLIC '-//W3C//DTD SVG 1.1//EN'  'http://www.w3.org/Graphics/SVG/1.1/DTD/svg11.dtd'><svg enable-background="new 0 0 256 256" height="256px" id="Layer_1" version="1.1" viewBox="0 0 256 256" width="256px" xml:space="preserve" xmlns="http://www.w3.org/2000/svg" xmlns:xlink="http://www.w3.org/1999/xlink"><g id="Layer_2"><circle cx="128" cy="128" fill="#EFEDEE" r="128"/></g><g id="Layer_1_1_"><path d="M-105.189-3.2v137.996c0,0.002,0,0.002,0,0.004c0,2.762,9.85,5,22,5c12.151,0,22-2.238,22-5l0,0v-138   H-105.189z" fill="#4FBA6F"/><ellipse cx="-70.188" cy="129.944" fill="#24AE5F" rx="22" ry="5"/><path d="M-162.19,50.798v83.701c0,0.002,0,0.002,0,0.004c0,2.762,9.85,5,22,5c12.151,0,22-2.238,22-5V50.798   H-162.19z" fill="#3B97D3"/><ellipse cx="-127.188" cy="183.692" fill="#2980BA" rx="22" ry="5"/><path d="M-4.188,193.692V75.314c0-2.762-9.851-5-22-5c-12.15,0-22,2.238-22,5v118.378H-4.188z" fill="#E64C3C"/><ellipse cx="-26.188" cy="193.692" fill="#C03A2B" rx="22" ry="5"/></g><rect fill="#3B97D3" height="29.444" width="40" x="33" y="99.5"/><rect fill="#4FBA6F" height="60.645" width="40" x="128" y="68.3"/><rect fill="#E64C3C" height="18.5" width="40" x="174.5" y="128"/><rect fill="#E64C3C" height="27.119" width="40" x="80" y="128"/><g id="Layer_2_1_"><line fill="none" stroke="#000000" stroke-miterlimit="10" stroke-width="2" x1="23.5" x2="230.5" y1="128" y2="128"/></g></svg>