<?xml version="1.0" ?><svg contentScriptType="text/ecmascript" contentStyleType="text/css" enable-background="new 0 0 2048 2048" height="2048px" id="Layer_1" preserveAspectRatio="xMidYMid meet" version="1.1" viewBox="0.0 0 1013.0 2048" width="1013.0px" xml:space="preserve" xmlns="http://www.w3.org/2000/svg" xmlns:xlink="http://www.w3.org/1999/xlink" zoomAndPan="magnify"><path d="M976,1435l35,159c2,8,1,15.5-3,22.5s-9.667,11.833-17,14.5l-5,1c-2.667,1.333-6.167,2.5-10.5,3.5s-9.667,2.5-16,4.5  s-13.5,3.833-21.5,5.5s-16.5,3.333-25.5,5s-19,3.333-30,5s-22.167,3.167-33.5,4.5s-23.5,2.333-36.5,3s-25.833,1-38.5,1  c-156,0-292.333-43.5-409-130.5S169,1329.333,127,1182H32c-8.667,0-16.167-3.167-22.5-9.5S0,1158.667,0,1150v-113  c0-8.667,3.167-16.167,9.5-22.5s13.833-9.5,22.5-9.5h66c-1.333-38-1-73,1-105H32c-9.333,0-17-3-23-9s-9-13.667-9-23V754  c0-9.333,3-17,9-23s13.667-9,23-9h98c44.667-140,125.833-252.667,243.5-338S624.667,256,774,256c68,0,132.667,7.667,194,23  c7.333,2,14,7,20,15c4,7.333,5,15.333,3,24l-43,159c-2,8.667-6.667,15.167-14,19.5s-15.333,5.167-24,2.5l-4-1  c-2.667-0.667-6.5-1.5-11.5-2.5L877,492c0,0-7.5-1.167-22.5-3.5s-23.667-3.333-26-3s-12-0.5-29-2.5s-26.833-2.333-29.5-1  c-84,0-159.333,21.333-226,64S427.333,647.333,394,722h468c10.667,0,19,4,25,12c6.667,8,9,16.667,7,26l-24,114  c-3.333,17.333-14,26-32,26H350c-2,24.667-2,59.667,0,105h459c10,0,18.333,4,25,12c6,8,8,17,6,27l-24,112  c-1.333,7.333-5,13.5-11,18.5s-12.667,7.5-20,7.5H398c32,78,81.833,139.833,149.5,185.5S691.333,1436,776,1436c12,0,24-0.5,36-1.5  s23.167-2.167,33.5-3.5s20.167-2.833,29.5-4.5s17.5-3.333,24.5-5s13.167-3.167,18.5-4.5l12-3l5-2c8.667-3.333,17.333-2.667,26,2  C969,1418.667,974,1425.667,976,1435z"/></svg>