<?xml version="1.0" ?><svg contentScriptType="text/ecmascript" contentStyleType="text/css" enable-background="new 0 0 2048 2048" height="2048px" id="Layer_1" preserveAspectRatio="xMidYMid meet" version="1.1" viewBox="0.0 0 1792.0 2048" width="1792.0px" xml:space="preserve" xmlns="http://www.w3.org/2000/svg" xmlns:xlink="http://www.w3.org/1999/xlink" zoomAndPan="magnify"><path d="M256,1568v192c0,9.333-3,17-9,23s-13.667,9-23,9H32c-9.333,0-17-3-23-9s-9-13.667-9-23v-192c0-9.333,3-17,9-23  s13.667-9,23-9h192c9.333,0,17,3,23,9S256,1558.667,256,1568z M640,1440v320c0,9.333-3,17-9,23s-13.667,9-23,9H416  c-9.333,0-17-3-23-9s-9-13.667-9-23v-320c0-9.333,3-17,9-23s13.667-9,23-9h192c9.333,0,17,3,23,9S640,1430.667,640,1440z M1024,1184  v576c0,9.333-3,17-9,23s-13.667,9-23,9H800c-9.333,0-17-3-23-9s-9-13.667-9-23v-576c0-9.333,3-17,9-23s13.667-9,23-9h192  c9.333,0,17,3,23,9S1024,1174.667,1024,1184z M1408,800v960c0,9.333-3,17-9,23s-13.667,9-23,9h-192c-9.333,0-17-3-23-9  s-9-13.667-9-23V800c0-9.333,3-17,9-23s13.667-9,23-9h192c9.333,0,17,3,23,9S1408,790.667,1408,800z M1792,288v1472  c0,9.333-3,17-9,23s-13.667,9-23,9h-192c-9.333,0-17-3-23-9s-9-13.667-9-23V288c0-9.333,3-17,9-23s13.667-9,23-9h192  c9.333,0,17,3,23,9S1792,278.667,1792,288z"/></svg>