<?xml version="1.0" ?><!DOCTYPE svg  PUBLIC '-//W3C//DTD SVG 1.1//EN'  'http://www.w3.org/Graphics/SVG/1.1/DTD/svg11.dtd'><svg enable-background="new 0 0 23.52 22.438" height="22.438px" id="Capa_1" version="1.1" viewBox="0 0 23.52 22.438" width="23.52px" xml:space="preserve" xmlns="http://www.w3.org/2000/svg" xmlns:xlink="http://www.w3.org/1999/xlink"><path d="M15.561,19.478c0.331-0.606,2.111-4.055,2.064-7.211c0,0,0.031-1.062-0.767-1.406c-0.259-0.11-1.768-0.754-1.934-0.92  c0,0-0.917-1.979-1.658-2.873c-1.716-2.072-3.085-3.134-3.48-3.426C9.536,3.456,8.958,3.23,7.781,2.001  C6.856,1.034,6.787,0.012,6.095,0C6.027-0.002,6.013,0.005,5.865,0.051c-0.37,0.112-2.036,1.435-0.663,3.646  c0,0,0.688,1.087,1.879,2.102c0,0,1.623,1.423-0.166,2.486c0,0-1.16,0.594-2.571,0.515C3.77,8.766,2.88,8.615,2.604,8.56  C2.329,8.504,1.407,8.221,0.671,8.67c-1.421,0.868-0.608,8.638,2.663,11.306c1.232,1.005,5.459,1.348,7.778,0.685  c0,0,1.318-0.461,1.99-0.388c0.939,0.105,1.514-0.06,1.514-0.06S15.229,20.086,15.561,19.478z"/><path d="M20.797,10.813c-1.125-0.176-2.161-0.35-2.38-0.374c-0.19-0.021-0.208,0.232-0.049,0.308  c0.195,0.112,0.469,0.452,0.549,1.151c0.005,0.51,0.411,3.774-2.298,8.266c-0.625,1.035-1.104,1-1.905,1.071  c0.036,0.484,0.774,0.751,0.774,0.751s2.355,0.766,3.785,0.305c0,0,2.109-0.447,3.414-4.367c0.362-1.089,0.621-2.212,0.734-3.167  c0.055-0.458,0.086-0.874,0.097-1.223C23.57,11.77,22.203,11.063,20.797,10.813z"/></svg>