<?xml version="1.0" ?><!DOCTYPE svg  PUBLIC '-//W3C//DTD SVG 1.1//EN'  'http://www.w3.org/Graphics/SVG/1.1/DTD/svg11.dtd'><svg enable-background="new 0 0 17.132 28.711" height="28.711px" id="Capa_1" version="1.1" viewBox="0 0 17.132 28.711" width="17.132px" xml:space="preserve" xmlns="http://www.w3.org/2000/svg" xmlns:xlink="http://www.w3.org/1999/xlink"><path d="M16.003,0H1.128C0.505,0,0,0.504,0,1.128v26.458c0,0.621,0.505,1.127,1.128,1.127h14.875c0.623,0,1.127-0.506,1.127-1.127  V1.128h0.002C17.132,0.504,16.626,0,16.003,0z M8.559,27.524c-0.733,0-1.328-0.594-1.328-1.327c0-0.731,0.595-1.325,1.328-1.325  c0.733,0,1.327,0.594,1.327,1.325C9.886,26.93,9.292,27.524,8.559,27.524z M14.394,21.875H2.739V3.701h11.655V21.875z"/></svg>