<?xml version="1.0" ?><svg height="612" id="svg2304" version="1.0" width="612" xmlns="http://www.w3.org/2000/svg" xmlns:cc="http://creativecommons.org/ns#" xmlns:dc="http://purl.org/dc/elements/1.1/" xmlns:inkscape="http://www.inkscape.org/namespaces/inkscape" xmlns:rdf="http://www.w3.org/1999/02/22-rdf-syntax-ns#" xmlns:sodipodi="http://sodipodi.sourceforge.net/DTD/sodipodi-0.dtd" xmlns:svg="http://www.w3.org/2000/svg"><defs id="defs2306"><marker id="ArrowEnd" markerHeight="3" markerUnits="strokeWidth" markerWidth="4" orient="auto" refX="0" refY="5" viewBox="0 0 10 10"><path d="M 0,0 L 10,5 L 0,10 L 0,0 z" id="path2309"/></marker><marker id="ArrowStart" markerHeight="3" markerUnits="strokeWidth" markerWidth="4" orient="auto" refX="10" refY="5" viewBox="0 0 10 10"><path d="M 10,0 L 0,5 L 10,10 L 10,0 z" id="path2312"/></marker></defs><g id="g7515" transform="translate(-8.19e-2,-0.5853944)"><g id="g2314"><path d="M 82.4318,17.9239 C 41.0968,17.9239 17.8608,39.2949 17.8608,82.9599 L 17.8608,533.082 C 17.8608,573.925 38.7518,595.31 80.0528,595.31 L 532.077,595.31 C 573.38,595.31 594.303,574.99 594.303,533.082 L 594.303,82.9599 C 594.303,40.3599 573.38,17.9239 530.78,17.9239 C 530.78,17.9239 82.2888,17.7819 82.4318,17.9239 z" id="path2316" style="fill:#000000;stroke:#ffffff;stroke-width:3.40799999"/></g><g id="g2318"><g id="g2320"><path d="M 159.815,497.955 L 159.815,279.956 L 159.861,279.948 C 159.861,258.206 176.582,240.146 199.582,240.146 L 418.082,240.146 C 440.332,240.146 457.782,257.956 457.782,279.956 L 457.782,497.955 L 457.79,498.01 C 457.832,521.205 440.082,537.501 418.332,537.501 L 199.582,537.501 L 199.582,537.504 C 177.832,537.504 159.815,520.205 159.815,497.955 z" id="path2322" style="fill:#ffffff;stroke:none"/><path d="M 200.989,281.821 L 416.608,281.821 L 416.608,496.187 L 200.989,496.187 L 200.989,281.821 z" id="path2324" style="fill:#000000;stroke:none"/></g><g id="g2326"><path d="M 362.707,71.4249 C 362.467,42.9094 403.717,42.5874 403.957,71.4249 L 403.33,157.952 L 425.519,130.769 C 440.832,113.957 467.769,137.394 451.144,156.394 L 397.332,220.456 C 388.832,228.956 377.782,228.905 369.332,220.456 L 315.769,156.144 C 299.145,137.144 326.332,113.457 341.394,130.519 L 363.334,157.952 L 362.707,71.4249 z" id="path2328" style="fill:#ffffff;stroke:none"/><path d="M 212.957,205.489 C 212.717,234.003 253.967,234.326 254.207,205.489 L 253.58,118.961 L 275.77,146.144 C 291.082,162.957 318.019,139.519 301.395,120.519 L 247.582,56.4559 C 239.082,47.9564 228.032,48.0074 219.582,56.4559 L 166.02,120.769 C 149.395,139.769 176.582,163.457 191.645,146.394 L 213.584,118.961 L 212.957,205.489 z" id="path2330" style="fill:#ffffff;stroke:none"/></g><g id="g2332"><g id="g2334"><path d="M 406.386,404.612 C 406.386,408.955 402.894,411.977 399.05,411.977 C 399.05,411.977 350.832,411.977 350.769,411.977 C 346.977,411.977 343.424,408.904 343.424,404.612 L 343.424,352.144 C 343.424,346.124 348.248,342.007 353.519,342.007 C 353.47,342.007 396.269,342.007 396.269,342.007 C 402.019,342.007 406.386,346.581 406.386,352.144 L 406.386,404.612 z" id="path2336" style="fill:#ffffff;stroke:none"/><g id="g2338"><path d="M 394.582,410.059 L 376.209,410.059 L 376.209,481.018 C 376.209,493.606 394.582,493.606 394.582,481.018 L 394.582,410.059 z" id="path2340" style="fill:#ffffff;stroke:none"/><path d="M 373.416,410.059 L 355.045,410.059 L 355.045,481.018 C 355.045,493.512 373.416,493.512 373.416,481.018 L 373.416,410.059 z" id="path2342" style="fill:#ffffff;stroke:none"/></g><g id="g2344"><path d="M 375.082,337.745 C 382.697,337.745 388.87,331.572 388.87,323.956 C 388.87,316.342 382.697,310.167 375.082,310.167 C 367.466,310.167 361.293,316.342 361.293,323.956 C 361.293,331.572 367.466,337.745 375.082,337.745 z" id="path2346" style="fill:#ffffff;stroke:none"/><path id="path2348" style="fill:#ffffff;stroke:none"/></g></g><g id="g2350"><path d="M 340.386,404.612 C 340.386,408.955 336.894,411.977 333.05,411.977 C 333.05,411.977 284.832,411.977 284.77,411.977 C 280.978,411.977 277.425,408.904 277.425,404.612 L 277.425,352.144 C 277.425,346.124 282.249,342.007 287.52,342.007 C 287.471,342.007 330.269,342.007 330.269,342.007 C 336.019,342.007 340.386,346.581 340.386,352.144 L 340.386,404.612 z" id="path2352" style="fill:#ffffff;stroke:none"/><g id="g2354"><path d="M 328.582,410.059 L 310.209,410.059 L 310.209,481.018 C 310.209,493.606 328.582,493.606 328.582,481.018 L 328.582,410.059 z" id="path2356" style="fill:#ffffff;stroke:none"/><path d="M 307.417,410.059 L 289.046,410.059 L 289.046,481.018 C 289.046,493.512 307.417,493.512 307.417,481.018 L 307.417,410.059 z" id="path2358" style="fill:#ffffff;stroke:none"/></g><g id="g2360"><path d="M 309.082,337.745 C 316.697,337.745 322.87,331.572 322.87,323.956 C 322.87,316.342 316.697,310.167 309.082,310.167 C 301.467,310.167 295.294,316.342 295.294,323.956 C 295.294,331.572 301.467,337.745 309.082,337.745 z" id="path2362" style="fill:#ffffff;stroke:none"/><path id="path2364" style="fill:#ffffff;stroke:none"/></g></g><g id="g2366"><path d="M 274.387,404.612 C 274.387,408.955 270.895,411.977 267.051,411.977 C 267.051,411.977 218.832,411.977 218.77,411.977 C 214.978,411.977 211.425,408.904 211.425,404.612 L 211.425,352.144 C 211.425,346.124 216.249,342.007 221.52,342.007 C 221.471,342.007 264.27,342.007 264.27,342.007 C 270.02,342.007 274.387,346.581 274.387,352.144 L 274.387,404.612 z" id="path2368" style="fill:#ffffff;stroke:none"/><g id="g2370"><path d="M 262.582,410.059 L 244.21,410.059 L 244.21,481.018 C 244.21,493.606 262.582,493.606 262.582,481.018 L 262.582,410.059 z" id="path2372" style="fill:#ffffff;stroke:none"/><path d="M 241.417,410.059 L 223.046,410.059 L 223.046,481.018 C 223.046,493.512 241.417,493.512 241.417,481.018 L 241.417,410.059 z" id="path2374" style="fill:#ffffff;stroke:none"/></g><g id="g2376"><path d="M 243.082,337.745 C 250.698,337.745 256.871,331.572 256.871,323.956 C 256.871,316.342 250.698,310.167 243.082,310.167 C 235.467,310.167 229.294,316.342 229.294,323.956 C 229.294,331.572 235.467,337.745 243.082,337.745 z" id="path2378" style="fill:#ffffff;stroke:none"/><path id="path2380" style="fill:#ffffff;stroke:none"/></g></g></g></g></g></svg>