<?xml version="1.0" ?><svg contentScriptType="text/ecmascript" contentStyleType="text/css" enable-background="new 0 0 2048 2048" height="2048px" id="Layer_1" preserveAspectRatio="xMidYMid meet" version="1.1" viewBox="0.0 0 1899.0 2048" width="1899.0px" xml:space="preserve" xmlns="http://www.w3.org/2000/svg" xmlns:xlink="http://www.w3.org/1999/xlink" zoomAndPan="magnify"><path d="M448,576c0-35.333-12.5-65.5-37.5-90.5S355.333,448,320,448s-65.5,12.5-90.5,37.5S192,540.667,192,576s12.5,65.5,37.5,90.5  S284.667,704,320,704s65.5-12.5,90.5-37.5S448,611.333,448,576z M1515,1152c0,35.333-12.333,65.333-37,90l-491,492  c-26,24.667-56.333,37-91,37c-35.333,0-65.333-12.333-90-37L91,1018c-25.333-24.667-46.833-58.333-64.5-101S0,835.333,0,800V384  c0-34.667,12.667-64.667,38-90s55.333-38,90-38h416c35.333,0,74.333,8.833,117,26.5s76.667,39.167,102,64.5l715,714  C1502.667,1087,1515,1117.333,1515,1152z M1899,1152c0,35.333-12.333,65.333-37,90l-491,492c-26,24.667-56.333,37-91,37  c-24,0-43.667-4.667-59-14s-33-24.333-53-45l470-470c24.667-24.667,37-54.667,37-90c0-34.667-12.333-65-37-91L923,347  c-25.333-25.333-59.333-46.833-102-64.5S739.333,256,704,256h224c35.333,0,74.333,8.833,117,26.5  c42.667,17.667,76.667,39.167,102,64.5l715,714C1886.667,1087,1899,1117.333,1899,1152z"/></svg>