<?xml version="1.0" ?><svg contentScriptType="text/ecmascript" contentStyleType="text/css" enable-background="new 0 0 2048 2048" height="2048px" id="Layer_1" preserveAspectRatio="xMidYMid meet" version="1.1" viewBox="56.0 0 1208.6669921875 2048" width="1208.6669921875px" xml:space="preserve" xmlns="http://www.w3.org/2000/svg" xmlns:xlink="http://www.w3.org/1999/xlink" zoomAndPan="magnify"><path d="M1167,768c12,121.333-31.667,207.333-131,258c78,18.667,136.333,53,175,103s53.667,121.333,45,214  c-4.667,47.333-15.5,89-32.5,125s-38.5,65.667-64.5,89s-58.333,42.833-97,58.5c-38.667,15.667-79.167,27.167-121.5,34.5  s-90.833,12.333-145.5,15v255H641v-251c-53.333,0-94-0.333-122-1v252H365v-255c-12,0-30-0.167-54-0.5s-42.333-0.5-55-0.5H56l31-183  h111c33.333,0,52.667-17,58-51v-402h16c-4-0.667-9.333-1-16-1V740c-8.667-45.333-38.333-68-89-68H56V508l212,1  c42.667,0,75-0.333,97-1V256h154v247c54.667-1.333,95.333-2,122-2V256h154v252c52.667,4.667,99.333,12.167,140,22.5  s78.333,25.333,113,45c34.667,19.667,62.167,45.667,82.5,78C1150.833,685.833,1163,724,1167,768z M952,1313c0-24-5-45.333-15-64  s-22.333-34-37-46s-33.833-22.167-57.5-30.5S797,1158,777,1154s-44.667-7-74-9s-52.333-3-69-3s-38.167,0.333-64.5,1  s-42.167,1-47.5,1v338c5.333,0,17.667,0.167,37,0.5s35.333,0.5,48,0.5s30.333-0.5,53-1.5s42.167-2.333,58.5-4s35.333-4.5,57-8.5  s40.167-8.667,55.5-14s31.167-12.333,47.5-21s29.5-18.667,39.5-30s18.167-24.667,24.5-40S952,1331.667,952,1313z M881,837  c0-22-4.167-41.5-12.5-58.5s-18.5-31-30.5-42s-28-20.333-48-28s-38.333-13.167-55-16.5s-37.167-6-61.5-8s-43.667-2.833-58-2.5  s-32.333,0.667-54,1S526.667,683,522,683v307c3.333,0,14.833,0.167,34.5,0.5s35.167,0.333,46.5,0s28-1,50-2s40.333-2.833,55-5.5  s31.833-6.333,51.5-11s35.833-10.833,48.5-18.5s25-16.667,37-27s21-23.167,27-38.5S881,855.667,881,837z"/></svg>