<?xml version="1.0" ?><!DOCTYPE svg  PUBLIC '-//W3C//DTD SVG 1.1//EN'  'http://www.w3.org/Graphics/SVG/1.1/DTD/svg11.dtd'><svg height="21.407px" id="Capa_1" style="enable-background:new 0 0 26.348 21.407;" version="1.1" viewBox="0 0 26.348 21.407" width="26.348px" xml:space="preserve" xmlns="http://www.w3.org/2000/svg" xmlns:xlink="http://www.w3.org/1999/xlink"><g><path d="M1.65,3.296v16.464h23.054V3.296   C16.399,3.296,6.461,3.296,1.65,3.296L1.65,3.296z M26.348,0v21.407H0V0C10.831,0,19.81,0,26.348,0z" style="fill-rule:evenodd;clip-rule:evenodd;fill:#231F20;"/><path d="M16.352,11.511c1.658,0,3.01-1.462,3.01-3.256   s-1.352-3.256-3.01-3.256s-3.01,1.463-3.01,3.256S14.694,11.511,16.352,11.511z" style="fill-rule:evenodd;clip-rule:evenodd;fill:#231F20;"/><rect height="1.646" style="fill-rule:evenodd;clip-rule:evenodd;fill:#231F20;" width="8.234" x="3.297" y="6.59"/><rect height="1.646" style="fill-rule:evenodd;clip-rule:evenodd;fill:#231F20;" width="8.234" x="3.297" y="9.883"/><rect height="1.646" style="fill-rule:evenodd;clip-rule:evenodd;fill:#231F20;" width="4.932" x="3.297" y="13.178"/><path d="M11.112,13.125h10.721c0.675,0,1.228,1.123,1.228,2.497v2.496   H9.884v-2.496C9.884,14.248,10.437,13.125,11.112,13.125z" style="fill-rule:evenodd;clip-rule:evenodd;fill:#231F20;"/></g><g/><g/><g/><g/><g/><g/><g/><g/><g/><g/><g/><g/><g/><g/><g/></svg>