<?xml version="1.0" ?><!DOCTYPE svg  PUBLIC '-//W3C//DTD SVG 1.1//EN'  'http://www.w3.org/Graphics/SVG/1.1/DTD/svg11.dtd'><svg enable-background="new 0 0 24.143 30.018" height="30.018px" id="Capa_1" version="1.1" viewBox="0 0 24.143 30.018" width="24.143px" xml:space="preserve" xmlns="http://www.w3.org/2000/svg" xmlns:xlink="http://www.w3.org/1999/xlink"><path d="M22.775,0h-6.198H7.495H1.296C0.656,0,0,0.765,0,1.404v27.177c0,0.642,0.656,1.437,1.296,1.437h6.199h9.081h6.198  c0.641,0,1.367-0.795,1.367-1.437V1.404C24.143,0.765,23.415,0,22.775,0z M12.209,28.548c-0.73,0-1.323-0.594-1.323-1.323  s0.593-1.322,1.323-1.322c0.729,0,1.322,0.594,1.322,1.322C13.531,27.954,12.938,28.548,12.209,28.548z M20.812,23.26H3.126  l0.07-19.769h17.615V23.26z"/></svg>