<?xml version="1.0" ?><svg height="564" id="svg2" version="1.0" width="564" xmlns="http://www.w3.org/2000/svg" xmlns:cc="http://web.resource.org/cc/" xmlns:dc="http://purl.org/dc/elements/1.1/" xmlns:inkscape="http://www.inkscape.org/namespaces/inkscape" xmlns:rdf="http://www.w3.org/1999/02/22-rdf-syntax-ns#" xmlns:sodipodi="http://inkscape.sourceforge.net/DTD/sodipodi-0.dtd" xmlns:svg="http://www.w3.org/2000/svg"><defs id="defs5"/><path d="M 76.587058,278.72583 L 76.587058,22.692442 L 281.98071,22.692442 L 487.37432,22.692442 L 487.37432,278.72583 L 487.37432,534.75921 L 281.98071,534.75921 L 76.587058,534.75921 L 76.587058,278.72583 z " id="path1324" style="fill:#ffffff;fill-opacity:1"/><path d="M 44.199596,559.47272 C 28.916336,556.15132 17.247106,547.34011 11.435856,534.73347 C 5.0342457,520.84614 5.4067057,536.33672 5.4067057,283.98066 C 5.4067057,64.634007 5.4947157,53.105484 7.2257057,45.727081 C 12.044566,25.186537 22.959286,13.492462 43.245376,7.1354595 C 47.926176,5.6686495 69.959496,5.4915955 279.90671,5.2337145 C 534.08416,4.9215045 520.10636,4.6099195 533.52056,10.887151 C 545.79676,16.631899 554.69276,28.2152 558.63936,43.593941 C 560.30436,50.082147 560.40666,63.992617 560.40666,283.98066 C 560.40666,502.47122 560.29496,517.91513 558.66896,524.23959 C 553.71816,543.49645 541.75196,555.02922 522.20926,559.37876 C 515.71576,560.824 492.29301,560.97289 282.70931,560.90116 C 91.740236,560.83581 49.302266,560.58164 44.199596,559.47272 z M 248.635,528.44972 C 254.74578,525.89648 258.99835,521.98013 261.50455,516.59769 L 263.88717,511.48066 L 263.89694,417.73066 C 263.90338,355.90384 264.24722,323.98066 264.90671,323.98066 C 265.45671,323.98066 266.24421,323.98049 266.65671,323.98029 C 267.06921,323.98008 267.63171,366.39258 267.90671,418.23029 L 268.40671,512.48066 L 270.62221,516.62321 C 273.42441,521.8627 279.74931,527.31732 284.76511,528.8201 C 290.70661,530.60021 298.80501,530.20951 303.90671,527.89663 C 309.50471,525.35873 312.48801,522.62028 315.25401,517.48066 C 317.25991,513.75338 317.44081,511.67386 317.90671,486.98066 L 318.40671,460.48066 L 363.40671,459.98066 L 408.40671,459.48066 L 408.40671,389.98066 L 408.40671,320.48066 L 395.90671,319.98066 L 383.40671,319.48066 L 382.86991,308.48066 C 382.57461,302.43066 381.95761,296.67652 381.49871,295.69367 C 380.11051,292.72059 374.80551,290.68403 367.15671,290.1879 L 359.90671,289.71765 L 359.90671,235.05925 C 359.90671,175.82522 359.82111,174.73491 354.30341,163.71386 C 348.23951,151.60191 338.08031,141.98254 325.88581,136.80638 C 320.43331,134.49194 320.16621,134.47924 270.83081,134.18744 L 221.25482,133.89423 L 201.83077,114.18728 C 191.14754,103.34846 171.38171,83.277983 157.90671,69.586234 C 141.74639,53.165956 132.04513,44.067922 129.40671,42.858357 C 110.89184,34.370343 91.798716,57.361735 103.83748,73.648123 C 106.26164,76.927603 128.6315,99.915565 201.06109,173.55815 L 214.90671,187.63565 L 214.92867,350.05815 C 214.94971,505.68265 215.02774,512.65041 216.79284,516.53647 C 218.92157,521.22311 225.94803,527.63139 230.36695,528.91636 C 235.27248,530.34283 244.67924,530.10254 248.635,528.44972 z M 318.39421,318.80457 C 318.11561,318.07642 318.00451,291.15566 318.14721,258.98066 C 318.40341,201.23383 318.43251,200.48066 320.40671,200.48066 C 322.38431,200.48066 322.40671,201.14733 322.40671,259.96696 C 322.40671,315.86463 322.30091,319.47364 320.65371,319.79087 C 319.68951,319.97655 318.67271,319.53272 318.39421,318.80457 z M 336.90671,312.50605 L 336.90671,304.98066 L 352.95051,304.98066 L 368.99431,304.98066 L 368.70051,312.23066 L 368.40671,319.48066 L 352.65671,319.75605 L 336.90671,320.03145 L 336.90671,312.50605 z M 445.71481,456.72954 C 447.99861,455.21643 450.88861,452.06643 452.13701,449.72954 C 454.40391,445.48585 454.40711,445.41556 454.69011,392.21168 C 454.88211,356.12778 454.62281,337.6401 453.88631,334.90501 C 453.28841,332.68427 451.21971,329.11911 449.28931,326.98241 C 444.06591,321.20067 439.51081,319.84905 426.40671,320.19242 L 415.40671,320.48066 L 415.14781,388.98066 C 415.00541,426.65566 415.11751,458.07893 415.39691,458.81015 C 415.79241,459.845 418.74791,460.06662 428.73371,459.81015 C 440.78121,459.50073 441.81541,459.31312 445.71481,456.72954 z M 286.30791,122.62694 C 295.25121,118.20693 301.84361,111.44596 306.22171,102.20398 C 309.17261,95.974843 309.40671,94.708873 309.40671,84.980653 C 309.40671,75.252443 309.17261,73.986483 306.22171,67.757332 C 301.79541,58.413668 295.26581,51.761627 286.04911,47.206475 C 278.78361,43.615665 278.12731,43.480661 267.93755,43.480661 C 258.04013,43.480661 256.94485,43.687331 250.79361,46.715576 C 238.35878,52.837224 230.58638,62.19653 227.32097,74.980663 C 221.92346,96.112053 234.2849,118.03667 255.56261,125.07086 C 260.08418,126.56564 263.40059,126.91482 270.21741,126.61385 C 277.87981,126.27554 279.97681,125.75593 286.30791,122.62694 z " id="path1312" style="fill:#000000"/></svg>