<?xml version="1.0" ?><!DOCTYPE svg  PUBLIC '-//W3C//DTD SVG 1.1//EN'  'http://www.w3.org/Graphics/SVG/1.1/DTD/svg11.dtd'><svg height="21.429px" id="Capa_1" style="enable-background:new 0 0 23.939 21.429;" version="1.1" viewBox="0 0 23.939 21.429" width="23.939px" xml:space="preserve" xmlns="http://www.w3.org/2000/svg" xmlns:xlink="http://www.w3.org/1999/xlink"><path d="M23.939,21.429H0c0-0.749,0-1.499,0-2.248  c0-1.179,0.35-1.609,1.236-2.294c1.956-1.511,4.874-2.472,7.917-3.308c0.542-0.149,0.42-0.208,0.429-0.762  c0.01-0.558,0-0.506-0.407-0.849C5.797,9.116,6.061,0.597,11.97,0c5.908,0.597,6.172,9.116,2.794,11.968  c-0.407,0.343-0.417,0.291-0.407,0.849c0.009,0.555-0.113,0.613,0.429,0.762c3.043,0.836,5.961,1.797,7.917,3.308  c0.886,0.685,1.236,1.115,1.236,2.294C23.939,19.931,23.939,20.68,23.939,21.429z" style="fill-rule:evenodd;clip-rule:evenodd;fill:#231F20;"/><g/><g/><g/><g/><g/><g/><g/><g/><g/><g/><g/><g/><g/><g/><g/></svg>