<?xml version="1.0" ?><!DOCTYPE svg  PUBLIC '-//W3C//DTD SVG 1.1//EN'  'http://www.w3.org/Graphics/SVG/1.1/DTD/svg11.dtd'><svg enable-background="new 0 0 512 295.807" height="295.807px" id="Layer_1" version="1.1" viewBox="0 0 512 295.807" width="512px" xml:space="preserve" xmlns="http://www.w3.org/2000/svg" xmlns:xlink="http://www.w3.org/1999/xlink"><g id="meanicons_x5F_7"><g><path d="M367.779,206.865c-24.348,0-44.08,19.771-44.08,44.065c0,24.347,19.732,44.067,44.08,44.067    c24.354,0,44.054-19.723,44.054-44.067C411.833,226.637,392.134,206.865,367.779,206.865z M367.779,271.334    c-11.25,0-20.348-9.109-20.348-20.402c0-11.25,9.098-20.352,20.348-20.352c11.248,0,20.355,9.102,20.355,20.352    C388.137,262.225,379.027,271.334,367.779,271.334z"/><path d="M73.874,206.865c-24.35,0-44.063,19.771-44.063,44.065c0,24.347,19.713,44.067,44.063,44.067    c24.301,0,44.063-19.723,44.063-44.067C117.937,226.637,98.175,206.865,73.874,206.865z M73.874,271.334    c-11.273,0-20.402-9.109-20.402-20.402c0-11.25,9.129-20.352,20.402-20.352c11.223,0,20.357,9.102,20.357,20.352    C94.231,262.225,85.097,271.334,73.874,271.334z"/><path d="M503.925-0.807H295.275h-9.318H135.426c-4.621,0-8.379,3.748-8.379,8.381v48.153c0,4.476,3.502,7.154,5.744,7.154h77.152    c2.969,0,5.477,1.658,6.967,4.039l-12.195,11.982c-1.518-2.295-3.945-3.9-6.891-3.9h-70.777v0.932h-7.277    c-4.656,0-8.379,3.746-8.379,8.418l-29.385,30.965l-56.475,6.972c-4.68,0-8.41,3.701-8.41,8.381l-5.594,30.039v30.569    c0,3.707-2.455,6.875-5.877,7.941l-5.305,35.254c0,4.627,3.758,8.422,8.377,8.422h4.854v0.732h5.574    c0.674-5.41,2.049-10.619,4.016-15.431c8.691-19.338,28.07-32.871,50.709-32.871c7.449,0,14.564,1.513,21.043,4.188l0.529-0.533    c16.535,8.129,28.551,24.729,30.967,44.646h0.633h9.541h174.428c3.625-28.146,27.652-49.959,56.766-49.959    c29.117,0,53.121,21.813,56.72,49.959h79.426c4.679,0,8.42-3.752,8.42-8.433V7.571C512.346,2.941,508.604-0.807,503.925-0.807z     M188.062,115.178c0,4.67-3.559,8.477-7.918,8.477h-20.98h-20.303h-24.672c-4.67,0-8.422-3.754-8.422-8.379l16.799-18.262    c0-4.674,3.75-8.371,8.385-8.371h7.91h39.412h1.871c4.359,0,7.918,3.752,7.918,8.42V115.178z"/></g></g><g id="Layer_1_1_"/></svg>