<?xml version="1.0" ?><svg height="612" id="svg1447" version="1.0" width="612" xmlns="http://www.w3.org/2000/svg" xmlns:cc="http://creativecommons.org/ns#" xmlns:dc="http://purl.org/dc/elements/1.1/" xmlns:inkscape="http://www.inkscape.org/namespaces/inkscape" xmlns:rdf="http://www.w3.org/1999/02/22-rdf-syntax-ns#" xmlns:sodipodi="http://sodipodi.sourceforge.net/DTD/sodipodi-0.dtd" xmlns:svg="http://www.w3.org/2000/svg"><defs id="defs1449"><marker id="ArrowEnd" markerHeight="3" markerUnits="strokeWidth" markerWidth="4" orient="auto" refX="0" refY="5" viewBox="0 0 10 10"><path d="M 0,0 L 10,5 L 0,10 L 0,0 z" id="path1452"/></marker><marker id="ArrowStart" markerHeight="3" markerUnits="strokeWidth" markerWidth="4" orient="auto" refX="10" refY="5" viewBox="0 0 10 10"><path d="M 10,0 L 0,5 L 10,10 L 10,0 z" id="path1455"/></marker></defs><g id="g2473" transform="translate(-117.75831,-42.525694)"><g id="g1457" transform="translate(2.303307,-50.67275)"><path d="M 197.805,110.537 C 156.47,110.537 133.234,131.908 133.234,175.573 L 133.234,625.695 C 133.234,666.538 154.125,687.923 195.426,687.923 L 647.45,687.923 C 688.753,687.923 709.676,667.603 709.676,625.695 L 709.676,175.573 C 709.676,132.973 688.753,110.537 646.153,110.537 C 646.153,110.537 197.662,110.395 197.805,110.537 z" id="path1459" style="fill:#000000;stroke:#ffffff;stroke-width:3.40799999"/></g><path d="M 626.09831,348.34325 L 626.09831,169.44225 L 222.41831,169.44225 L 222.41831,348.34325 L 626.09831,348.34325 z" id="path1463" style="fill:none;stroke:#ffffff;stroke-width:42"/><g id="g1473" transform="translate(2.303307,-50.67275)"><g id="g1475"><path d="M 424.258,367.408 C 455.694,367.408 481.18,341.922 481.18,310.486 C 481.18,279.05 455.694,253.564 424.258,253.564 C 392.822,253.564 367.336,279.05 367.336,310.486 C 367.336,341.922 392.822,367.408 424.258,367.408 z" id="path1477" style="fill:#ffffff;stroke:#ffffff;stroke-width:1.85899997"/></g><g id="g1481"><path d="M 392.543,320.323 L 407.408,320.323 C 408.349,324.612 409.587,329.799 416.358,331.724 L 416.34,314.875 C 407.067,313.542 393.69,309.476 393.69,294.563 C 393.69,277.799 412.237,272.572 416.358,272.572 L 416.358,262.435 L 430.338,262.435 L 430.338,272.572 C 439.765,273.118 453.447,280.998 453.447,295.978 L 438.728,295.978 C 438.354,291.531 434.907,287.162 430.485,286.85 L 430.485,302.298 C 441.723,303.451 454.919,307.74 454.919,322.84 C 454.919,336.025 441.672,345.641 430.485,346.233 L 430.485,356.395 L 416.358,356.395 L 416.358,346.085 C 408.263,344.901 393.462,337.096 392.543,320.323 z" id="path1483" style="fill:#000000;stroke:none"/><path d="M 416.431,287.003 L 416.431,299.802 C 406.468,299.646 406.274,288.779 416.431,287.003 z" id="path1485" style="fill:#ffffff;stroke:none"/><g id="g1487"><path d="M 430.649,317.278 C 442.977,317.59 444.349,329.839 430.635,331.798" id="path1489" style="fill:#ffffff;stroke:none"/><path d="M 430.635,331.798 L 430.649,317.278" id="path1491" style="fill:#ffffff;stroke:none"/></g></g></g><g id="g1493" transform="translate(2.303307,-50.67275)"><g id="g1495"><path d="M 516.258,466.908 C 547.694,466.908 573.18,441.422 573.18,409.986 C 573.18,378.549 547.694,353.063 516.258,353.063 C 484.821,353.063 459.335,378.549 459.335,409.986 C 459.335,441.422 484.821,466.908 516.258,466.908 z" id="path1497" style="fill:#ffffff;stroke:#ffffff;stroke-width:1.85899997"/></g><path d="M 543.053,432.234 L 543.053,444.505 L 490.335,444.505 L 490.335,432.234 C 496.325,428.222 499.441,418.075 497.524,412.646 L 486.501,412.646 L 486.501,400.14 L 495.366,400.14 C 492.97,394.477 492.97,392.589 492.97,387.633 C 492.97,382.678 497.045,366.52 518.37,366.632 C 538.008,366.736 543.708,382.916 543.708,394.477 L 528.758,394.486 C 527.758,387.486 525.008,381.736 518.508,381.736 C 508.564,381.736 508.547,387.987 508.547,390.112 C 508.547,392.235 508.905,397.426 510.943,400.259 L 523.883,400.259 L 523.883,412.529 L 513.339,412.529 C 514.656,423.739 508.187,428.458 507.827,432.234 L 543.053,432.234 z" id="path1501" style="fill:#000000;stroke:none"/></g><g id="g1505" transform="translate(2.303307,-50.67275)"><path d="M 299.258,549.408 C 330.695,549.408 356.181,523.922 356.181,492.486 C 356.181,461.049 330.695,435.563 299.258,435.563 C 267.822,435.563 242.336,461.049 242.336,492.486 C 242.336,523.922 267.822,549.408 299.258,549.408 z" id="path1507" style="fill:#ffffff;stroke:#ffffff;stroke-width:1.85899997"/></g><path d="M 307.27631,431.45725 L 321.65431,431.45725 L 321.65431,438.64625 C 324.77031,435.05025 328.36331,431.21625 336.03131,431.21625 L 336.03131,444.87625 C 324.31131,446.31325 321.65431,452.56325 321.65431,460.31325 L 321.65431,477.46525 L 307.27631,477.46525 L 307.27631,431.45725 z" id="path1513" style="fill:#000000;stroke:none"/><path d="M 303.37031,431.45725 L 303.37031,444.99525 L 293.14931,444.99525 L 293.14931,477.46525 L 278.65231,477.46525 L 278.65231,445.11525 L 270.02631,445.11525 L 270.02631,431.57625 L 278.65231,431.57625 L 278.65231,419.47625 C 278.65231,414.80325 283.20431,400.54425 300.33731,400.54425 C 317.82931,400.54425 321.56131,414.31325 321.56131,425.82525 L 307.31131,425.82525 C 307.31131,418.43825 306.31131,414.56225 300.45631,414.56225 C 294.18631,414.56225 293.14931,418.87525 293.14931,425.70625 L 293.14931,431.45725 L 303.37031,431.45725 z" id="path1515" style="fill:#000000;stroke:none"/><g id="g1519" transform="translate(2.303307,-50.67275)"><path d="M 478.258,613.908 C 509.694,613.908 535.18,588.422 535.18,556.986 C 535.18,525.549 509.694,500.063 478.258,500.063 C 446.821,500.063 421.336,525.549 421.336,556.986 C 421.336,588.422 446.821,613.908 478.258,613.908 z" id="path1521" style="fill:#ffffff;stroke:#ffffff;stroke-width:1.85899997"/></g><path d="M 449.06931,471.90425 L 465.60431,471.90425 L 480.94031,498.97125 L 497.58031,471.90425 L 512.80931,471.90425 L 488.12931,515.55225 L 506.57931,515.55225 L 506.57931,529.45025 L 488.84731,529.45025 L 488.84731,548.95825 L 473.75131,548.95825 L 473.75131,529.45025 L 454.82031,529.45025 L 454.82031,515.79525 L 473.99031,515.79525 L 449.06931,471.90425 z" id="path1525" style="fill:#000000;stroke:none"/></g></svg>