<?xml version="1.0" ?><!DOCTYPE svg  PUBLIC '-//W3C//DTD SVG 1.1//EN'  'http://www.w3.org/Graphics/SVG/1.1/DTD/svg11.dtd'><svg enable-background="new 0 0 512 321.027" height="321.027px" id="Layer_1" version="1.1" viewBox="0 0 512 321.027" width="512px" xml:space="preserve" xmlns="http://www.w3.org/2000/svg" xmlns:xlink="http://www.w3.org/1999/xlink"><g id="meanicons_x5F_33"><path d="M499.553,270.79c-1.467,0.631-3.018,1.215-4.564,1.783l-65.391-162.514l14.063-1.037l-0.024-10.008l-19.215-1.35   l-1.098-0.883c-0.589-0.449-1.223-0.783-1.926-0.979l-2.549-0.53c-0.9,0-1.768,0.181-2.277,0.39l-1.467,0.062l-0.961,1.16   L274.344,86.781l0.035-2.554c0-19.764-1.299-84.254-18.021-84.254c-16.759,0-18.069,64.49-18.069,84.254l0.041,2.75L98.709,97.096   l-0.37-0.313c-0.596-0.472-1.246-0.782-1.942-0.979l-2.553-0.53c-0.744,0-1.478,0.142-2.176,0.39l-1.447,0.063l-1.473,1.646   l-16.992,1.646l-0.018,10.008l11.434,0.862L17.706,272.576c-1.55-0.567-3.093-1.151-4.572-1.783l-12.787-5.61l6.295,12.457   c13.068,25.949,48.134,43.363,87.203,43.363c39.047,0,74.112-17.415,87.234-43.346l6.318-12.477l-12.811,5.59   c-1.491,0.652-3.016,1.236-4.579,1.805l-64.807-161.082l134.604,9.767c4.019,47.233,13.055,47.233,16.555,47.233   c3.452,0,12.487,0,16.487-47.018l134.588-9.785l-64.721,160.885c-1.583-0.568-3.139-1.152-4.605-1.805l-12.795-5.59l6.301,12.477   c13.121,25.93,48.17,43.346,87.235,43.346c39.089,0,74.135-17.416,87.213-43.363l6.283-12.458L499.553,270.79z M155.407,277.77   c-39.028,12.2-84.087,12.2-123.109,0l61.545-152.979L155.407,277.77z M357.283,277.77l61.564-152.979l61.543,152.979   C441.381,289.97,396.296,289.97,357.283,277.77z"/></g><g id="Layer_1_1_"/></svg>