<?xml version="1.0" encoding="UTF-8" standalone="no"?>
<svg
   xmlns:dc="http://purl.org/dc/elements/1.1/"
   xmlns:cc="http://creativecommons.org/ns#"
   xmlns:rdf="http://www.w3.org/1999/02/22-rdf-syntax-ns#"
   xmlns:svg="http://www.w3.org/2000/svg"
   xmlns="http://www.w3.org/2000/svg"
   xmlns:sodipodi="http://sodipodi.sourceforge.net/DTD/sodipodi-0.dtd"
   xmlns:inkscape="http://www.inkscape.org/namespaces/inkscape"
   sodipodi:docname="1400905649_male5.svg"
   inkscape:version="0.48.4 r9939"
   xml:space="preserve"
   width="200"
   viewBox="0 0 200 200"
   version="1.1"
   id="Capa_1"
   height="200"><sodipodi:namedview
     pagecolor="#ffffff"
     bordercolor="#666666"
     borderopacity="1"
     objecttolerance="10"
     gridtolerance="10"
     guidetolerance="10"
     inkscape:pageopacity="0"
     inkscape:pageshadow="2"
     inkscape:window-width="1280"
     inkscape:window-height="738"
     id="namedview43"
     showgrid="false"
     inkscape:zoom="0.70710678"
     inkscape:cx="-8.3874099"
     inkscape:cy="93.455076"
     inkscape:window-x="-8"
     inkscape:window-y="-8"
     inkscape:window-maximized="1"
     inkscape:current-layer="Capa_1" /><metadata
     id="metadata47"><rdf:RDF><cc:Work
         rdf:about=""><dc:format>image/svg+xml</dc:format><dc:type
           rdf:resource="http://purl.org/dc/dcmitype/StillImage" /></cc:Work></rdf:RDF></metadata><defs
     id="defs45" /><g
     id="g13"
     transform="translate(0,174.472)" /><g
     id="g15"
     transform="translate(0,174.472)" /><g
     id="g17"
     transform="translate(0,174.472)" /><g
     id="g19"
     transform="translate(0,174.472)" /><g
     id="g21"
     transform="translate(0,174.472)" /><g
     id="g23"
     transform="translate(0,174.472)" /><g
     id="g25"
     transform="translate(0,174.472)" /><g
     id="g27"
     transform="translate(0,174.472)" /><g
     id="g29"
     transform="translate(0,174.472)" /><g
     id="g31"
     transform="translate(0,174.472)" /><g
     id="g33"
     transform="translate(0,174.472)" /><g
     id="g35"
     transform="translate(0,174.472)" /><g
     id="g37"
     transform="translate(0,174.472)" /><g
     id="g39"
     transform="translate(0,174.472)" /><g
     id="g41"
     transform="translate(0,174.472)" /><g
     id="g4370"><path
       inkscape:connector-curvature="0"
       d="M 22.716135,85.798154 C 6.1220453,103.68498 2.2594953,131.51416 0.18327527,154.75216 l 0,0 c -1.32407997,14.78425 2.63249003,22.384 15.66957973,28.76152 l 0,0 c 19.08556,9.33908 41.38338,12.4965 62.39629,9.6603 l 0,0 c 5.26498,-0.71296 11.60333,-2.60115 16.44523,-4.74788 l 0,0 c 9.660305,-4.28563 24.554245,-9.69947 27.092715,-21.40466 l 0,0 c 2.89104,-13.27213 -4.80272,-31.40185 -8.58693,-42.39406 l 0,0 C 106.73646,105.88656 96.386695,81.504694 76.149425,74.163494 l 0,0 c -1.80984,-0.65029 -3.67452,-1.14388 -5.57054,-1.46511 l 0,0 c -5.62538,-0.9245 -11.31344,-1.29274 -16.8448,-0.90883 l 0,0 c -11.60333,0.80698 -22.56421,4.89674 -31.01795,14.0086 l 0,0 z"
       style="fill:#ffffff;fill-opacity:1"
       id="path5" /><path
       inkscape:connector-curvature="0"
       d="m 71.454476,68.902595 12.010738,13.217296 c 0,0 -1.770664,16.210186 -12.755043,25.369059 L 60.211548,91.04372 44.017031,108.03739 c 0,0 -11.91672,-17.534271 -8.759298,-31.903281 3.173091,-14.361175 36.196743,-7.231514 36.196743,-7.231514 z"
       style="fill:#00a859"
       id="path7" /><path
       inkscape:connector-curvature="0"
       d="m 57.90983,91.537312 c 23.151813,0 42.033664,-18.881851 42.033664,-42.033664 0,-23.151813 -18.881851,-42.033664 -42.033664,-42.033664 -23.151813,0 -42.033664,18.881851 -42.033664,42.033664 0,23.151813 18.881851,42.033664 42.033664,42.033664 z"
       style="fill:#00a859;fill-rule:evenodd;stroke:#ffffff;stroke-width:0.7059148;stroke-miterlimit:2.61310005;stroke-opacity:1"
       id="path9" /><path
       inkscape:connector-curvature="0"
       d="M 33.956545,8.5313828 C 17.652335,16.914612 14.722125,36.07068 16.101045,52.54725 l 0,0 c 8.82198,-0.618949 22.10195,-7.137497 28.90255,-12.637521 l 0,0 c -2.37394,4.497171 -6.34618,8.633942 -10.67882,10.3811 l 0,0 c 13.2408,-3.18876 21.71021,-9.793491 31.33133,-19.28926 l 0,0 c -1.31624,5.844756 -5.01426,11.548485 -9.01,15.928134 l 0,0 c 6.99646,0.04701 12.65318,-7.427383 17.31488,-11.971563 l 0,0 c -1.43376,3.909561 -2.89103,7.560575 -5.5627,10.874692 l 0,0 c 5.49219,-1.034192 10.15389,-5.123954 13.33482,-9.746482 l 0,0 c 3.38463,7.435218 11.76786,9.354743 18.286405,12.018572 l 0,0 c -0.008,-0.117522 -0.008,-0.227209 -0.0157,-0.329061 l 0,0 C 98.789445,29.85769 95.020915,14.775713 76.640485,7.1211208 l 0,0 c -6.14247,-2.554143 -13.00575,-3.854718 -19.89253,-3.854718 l 0,0 c -7.95232,0 -15.9203,1.739324 -22.79141,5.26498 l 0,0 z"
       style="fill:#ffffff;fill-opacity:1"
       id="path11" /></g></svg>